<mxfile host="app.diagrams.net" modified="2023-10-21T03:38:44.951Z" agent="Mozilla/5.0 (Windows NT 10.0; Win64; x64) AppleWebKit/537.36 (KHTML, like Gecko) Chrome/118.0.0.0 Safari/537.36" etag="hiqiQvpiFoi4tQK66GMT" version="22.0.6" type="device">
  <diagram id="C5RBs43oDa-KdzZeNtuy" name="Page-1">
    <mxGraphModel dx="1843" dy="1996" grid="1" gridSize="10" guides="1" tooltips="1" connect="1" arrows="1" fold="1" page="1" pageScale="1" pageWidth="827" pageHeight="1169" math="0" shadow="0">
      <root>
        <mxCell id="WIyWlLk6GJQsqaUBKTNV-0" />
        <mxCell id="WIyWlLk6GJQsqaUBKTNV-1" parent="WIyWlLk6GJQsqaUBKTNV-0" />
        <mxCell id="zkfFHV4jXpPFQw0GAbJ--0" value="QuadTree" style="swimlane;fontStyle=2;align=center;verticalAlign=top;childLayout=stackLayout;horizontal=1;startSize=26;horizontalStack=0;resizeParent=1;resizeLast=0;collapsible=1;marginBottom=0;rounded=0;shadow=0;strokeWidth=1;" parent="WIyWlLk6GJQsqaUBKTNV-1" vertex="1">
          <mxGeometry x="50" y="90" width="610" height="440" as="geometry">
            <mxRectangle x="230" y="140" width="160" height="26" as="alternateBounds" />
          </mxGeometry>
        </mxCell>
        <mxCell id="Glf05ymJiexmFn3EhBXO-1" value="# raiz : NodoQ" style="text;align=left;verticalAlign=top;spacingLeft=4;spacingRight=4;overflow=hidden;rotatable=0;points=[[0,0.5],[1,0.5]];portConstraint=eastwest;" parent="zkfFHV4jXpPFQw0GAbJ--0" vertex="1">
          <mxGeometry y="26" width="610" height="26" as="geometry" />
        </mxCell>
        <mxCell id="Glf05ymJiexmFn3EhBXO-2" value="# imageSize: Size" style="text;align=left;verticalAlign=top;spacingLeft=4;spacingRight=4;overflow=hidden;rotatable=0;points=[[0,0.5],[1,0.5]];portConstraint=eastwest;" parent="zkfFHV4jXpPFQw0GAbJ--0" vertex="1">
          <mxGeometry y="52" width="610" height="26" as="geometry" />
        </mxCell>
        <mxCell id="Glf05ymJiexmFn3EhBXO-3" value="# imageType: int" style="text;align=left;verticalAlign=top;spacingLeft=4;spacingRight=4;overflow=hidden;rotatable=0;points=[[0,0.5],[1,0.5]];portConstraint=eastwest;" parent="zkfFHV4jXpPFQw0GAbJ--0" vertex="1">
          <mxGeometry y="78" width="610" height="26" as="geometry" />
        </mxCell>
        <mxCell id="Glf05ymJiexmFn3EhBXO-4" value="#wasExtended: boolean" style="text;align=left;verticalAlign=top;spacingLeft=4;spacingRight=4;overflow=hidden;rotatable=0;points=[[0,0.5],[1,0.5]];portConstraint=eastwest;" parent="zkfFHV4jXpPFQw0GAbJ--0" vertex="1">
          <mxGeometry y="104" width="610" height="26" as="geometry" />
        </mxCell>
        <mxCell id="zkfFHV4jXpPFQw0GAbJ--4" value="" style="line;html=1;strokeWidth=1;align=left;verticalAlign=middle;spacingTop=-1;spacingLeft=3;spacingRight=3;rotatable=0;labelPosition=right;points=[];portConstraint=eastwest;" parent="zkfFHV4jXpPFQw0GAbJ--0" vertex="1">
          <mxGeometry y="130" width="610" height="8" as="geometry" />
        </mxCell>
        <mxCell id="zkfFHV4jXpPFQw0GAbJ--5" value="+ QuadTree(NodoQ r)&#xa;" style="text;align=left;verticalAlign=top;spacingLeft=4;spacingRight=4;overflow=hidden;rotatable=0;points=[[0,0.5],[1,0.5]];portConstraint=eastwest;" parent="zkfFHV4jXpPFQw0GAbJ--0" vertex="1">
          <mxGeometry y="138" width="610" height="30" as="geometry" />
        </mxCell>
        <mxCell id="Glf05ymJiexmFn3EhBXO-6" value="+ getRaiz(): NodoQ&#xa;" style="text;align=left;verticalAlign=top;spacingLeft=4;spacingRight=4;overflow=hidden;rotatable=0;points=[[0,0.5],[1,0.5]];portConstraint=eastwest;" parent="zkfFHV4jXpPFQw0GAbJ--0" vertex="1">
          <mxGeometry y="168" width="610" height="30" as="geometry" />
        </mxCell>
        <mxCell id="Glf05ymJiexmFn3EhBXO-7" value="- canDivideNE(image: Mat): boolean&#xa;" style="text;align=left;verticalAlign=top;spacingLeft=4;spacingRight=4;overflow=hidden;rotatable=0;points=[[0,0.5],[1,0.5]];portConstraint=eastwest;" parent="zkfFHV4jXpPFQw0GAbJ--0" vertex="1">
          <mxGeometry y="198" width="610" height="30" as="geometry" />
        </mxCell>
        <mxCell id="Glf05ymJiexmFn3EhBXO-8" value="- canDivideNW(image: Mat): boolean&#xa;" style="text;align=left;verticalAlign=top;spacingLeft=4;spacingRight=4;overflow=hidden;rotatable=0;points=[[0,0.5],[1,0.5]];portConstraint=eastwest;" parent="zkfFHV4jXpPFQw0GAbJ--0" vertex="1">
          <mxGeometry y="228" width="610" height="30" as="geometry" />
        </mxCell>
        <mxCell id="Glf05ymJiexmFn3EhBXO-9" value="- canDivideSW(image: Mat): boolean&#xa;" style="text;align=left;verticalAlign=top;spacingLeft=4;spacingRight=4;overflow=hidden;rotatable=0;points=[[0,0.5],[1,0.5]];portConstraint=eastwest;" parent="zkfFHV4jXpPFQw0GAbJ--0" vertex="1">
          <mxGeometry y="258" width="610" height="30" as="geometry" />
        </mxCell>
        <mxCell id="Glf05ymJiexmFn3EhBXO-10" value="- canDivideSE(image: Mat): boolean&#xa;" style="text;align=left;verticalAlign=top;spacingLeft=4;spacingRight=4;overflow=hidden;rotatable=0;points=[[0,0.5],[1,0.5]];portConstraint=eastwest;" parent="zkfFHV4jXpPFQw0GAbJ--0" vertex="1">
          <mxGeometry y="288" width="610" height="30" as="geometry" />
        </mxCell>
        <mxCell id="Glf05ymJiexmFn3EhBXO-11" value="+ generarArbol(image: Mat): void" style="text;align=left;verticalAlign=top;spacingLeft=4;spacingRight=4;overflow=hidden;rotatable=0;points=[[0,0.5],[1,0.5]];portConstraint=eastwest;" parent="zkfFHV4jXpPFQw0GAbJ--0" vertex="1">
          <mxGeometry y="318" width="610" height="30" as="geometry" />
        </mxCell>
        <mxCell id="Glf05ymJiexmFn3EhBXO-12" value="- generarArbol(image: Mat, nodoActual: NodoQ): void" style="text;align=left;verticalAlign=top;spacingLeft=4;spacingRight=4;overflow=hidden;rotatable=0;points=[[0,0.5],[1,0.5]];portConstraint=eastwest;" parent="zkfFHV4jXpPFQw0GAbJ--0" vertex="1">
          <mxGeometry y="348" width="610" height="30" as="geometry" />
        </mxCell>
        <mxCell id="Glf05ymJiexmFn3EhBXO-13" value="+ reconstruirImagen(): Mat&#xa;" style="text;align=left;verticalAlign=top;spacingLeft=4;spacingRight=4;overflow=hidden;rotatable=0;points=[[0,0.5],[1,0.5]];portConstraint=eastwest;" parent="zkfFHV4jXpPFQw0GAbJ--0" vertex="1">
          <mxGeometry y="378" width="610" height="30" as="geometry" />
        </mxCell>
        <mxCell id="Glf05ymJiexmFn3EhBXO-14" value="- reconstruirImagen(nodo: NodoQ, imagenReconstruida: Mat, inicioX: int, inicioY: int, ancho: int, alto: int): void" style="text;align=left;verticalAlign=top;spacingLeft=4;spacingRight=4;overflow=hidden;rotatable=0;points=[[0,0.5],[1,0.5]];portConstraint=eastwest;" parent="zkfFHV4jXpPFQw0GAbJ--0" vertex="1">
          <mxGeometry y="408" width="610" height="30" as="geometry" />
        </mxCell>
        <mxCell id="Glf05ymJiexmFn3EhBXO-15" value="NodoQ" style="swimlane;fontStyle=2;align=center;verticalAlign=top;childLayout=stackLayout;horizontal=1;startSize=26;horizontalStack=0;resizeParent=1;resizeLast=0;collapsible=1;marginBottom=0;rounded=0;shadow=0;strokeWidth=1;" parent="WIyWlLk6GJQsqaUBKTNV-1" vertex="1">
          <mxGeometry x="770" y="70" width="580" height="670" as="geometry">
            <mxRectangle x="230" y="140" width="160" height="26" as="alternateBounds" />
          </mxGeometry>
        </mxCell>
        <mxCell id="Glf05ymJiexmFn3EhBXO-16" value="# llave: Mat&#xa;" style="text;align=left;verticalAlign=top;spacingLeft=4;spacingRight=4;overflow=hidden;rotatable=0;points=[[0,0.5],[1,0.5]];portConstraint=eastwest;" parent="Glf05ymJiexmFn3EhBXO-15" vertex="1">
          <mxGeometry y="26" width="580" height="26" as="geometry" />
        </mxCell>
        <mxCell id="Glf05ymJiexmFn3EhBXO-33" value="# hijoNE: NodoQ&#xa;" style="text;align=left;verticalAlign=top;spacingLeft=4;spacingRight=4;overflow=hidden;rotatable=0;points=[[0,0.5],[1,0.5]];portConstraint=eastwest;" parent="Glf05ymJiexmFn3EhBXO-15" vertex="1">
          <mxGeometry y="52" width="580" height="26" as="geometry" />
        </mxCell>
        <mxCell id="Glf05ymJiexmFn3EhBXO-34" value="# hijoNW: NodoQ&#xa;" style="text;align=left;verticalAlign=top;spacingLeft=4;spacingRight=4;overflow=hidden;rotatable=0;points=[[0,0.5],[1,0.5]];portConstraint=eastwest;" parent="Glf05ymJiexmFn3EhBXO-15" vertex="1">
          <mxGeometry y="78" width="580" height="26" as="geometry" />
        </mxCell>
        <mxCell id="Glf05ymJiexmFn3EhBXO-35" value="# hijoSW: NodoQ&#xa;" style="text;align=left;verticalAlign=top;spacingLeft=4;spacingRight=4;overflow=hidden;rotatable=0;points=[[0,0.5],[1,0.5]];portConstraint=eastwest;" parent="Glf05ymJiexmFn3EhBXO-15" vertex="1">
          <mxGeometry y="104" width="580" height="26" as="geometry" />
        </mxCell>
        <mxCell id="Glf05ymJiexmFn3EhBXO-36" value="# hijoSE: NodoQ&#xa;" style="text;align=left;verticalAlign=top;spacingLeft=4;spacingRight=4;overflow=hidden;rotatable=0;points=[[0,0.5],[1,0.5]];portConstraint=eastwest;" parent="Glf05ymJiexmFn3EhBXO-15" vertex="1">
          <mxGeometry y="130" width="580" height="26" as="geometry" />
        </mxCell>
        <mxCell id="Glf05ymJiexmFn3EhBXO-37" value="# padre: NodoQ" style="text;align=left;verticalAlign=top;spacingLeft=4;spacingRight=4;overflow=hidden;rotatable=0;points=[[0,0.5],[1,0.5]];portConstraint=eastwest;" parent="Glf05ymJiexmFn3EhBXO-15" vertex="1">
          <mxGeometry y="156" width="580" height="26" as="geometry" />
        </mxCell>
        <mxCell id="Glf05ymJiexmFn3EhBXO-22" value="" style="line;html=1;strokeWidth=1;align=left;verticalAlign=middle;spacingTop=-1;spacingLeft=3;spacingRight=3;rotatable=0;labelPosition=right;points=[];portConstraint=eastwest;" parent="Glf05ymJiexmFn3EhBXO-15" vertex="1">
          <mxGeometry y="182" width="580" height="8" as="geometry" />
        </mxCell>
        <mxCell id="Glf05ymJiexmFn3EhBXO-23" value="+ NodoQ(llave: Mat, padre: NodoQ)" style="text;align=left;verticalAlign=top;spacingLeft=4;spacingRight=4;overflow=hidden;rotatable=0;points=[[0,0.5],[1,0.5]];portConstraint=eastwest;" parent="Glf05ymJiexmFn3EhBXO-15" vertex="1">
          <mxGeometry y="190" width="580" height="30" as="geometry" />
        </mxCell>
        <mxCell id="Glf05ymJiexmFn3EhBXO-32" value="+ NodoQ()&#xa;&#xa;" style="text;align=left;verticalAlign=top;spacingLeft=4;spacingRight=4;overflow=hidden;rotatable=0;points=[[0,0.5],[1,0.5]];portConstraint=eastwest;" parent="Glf05ymJiexmFn3EhBXO-15" vertex="1">
          <mxGeometry y="220" width="580" height="30" as="geometry" />
        </mxCell>
        <mxCell id="Glf05ymJiexmFn3EhBXO-38" value="+ NodoQ(llave: Mat, hijoNE: NodoQ, hijoNW: NodoQ, hijoSW: NodoQ, hijoSE: NodoQ, padre: NodoQ)" style="text;align=left;verticalAlign=top;spacingLeft=4;spacingRight=4;overflow=hidden;rotatable=0;points=[[0,0.5],[1,0.5]];portConstraint=eastwest;" parent="Glf05ymJiexmFn3EhBXO-15" vertex="1">
          <mxGeometry y="250" width="580" height="30" as="geometry" />
        </mxCell>
        <mxCell id="Glf05ymJiexmFn3EhBXO-39" value="+ getPadre(): NodoQ" style="text;align=left;verticalAlign=top;spacingLeft=4;spacingRight=4;overflow=hidden;rotatable=0;points=[[0,0.5],[1,0.5]];portConstraint=eastwest;" parent="Glf05ymJiexmFn3EhBXO-15" vertex="1">
          <mxGeometry y="280" width="580" height="30" as="geometry" />
        </mxCell>
        <mxCell id="Glf05ymJiexmFn3EhBXO-40" value="+ setPadre(padre: NodoQ) : void" style="text;align=left;verticalAlign=top;spacingLeft=4;spacingRight=4;overflow=hidden;rotatable=0;points=[[0,0.5],[1,0.5]];portConstraint=eastwest;" parent="Glf05ymJiexmFn3EhBXO-15" vertex="1">
          <mxGeometry y="310" width="580" height="30" as="geometry" />
        </mxCell>
        <mxCell id="Glf05ymJiexmFn3EhBXO-41" value="+ getHijoNE(): NodoQ" style="text;align=left;verticalAlign=top;spacingLeft=4;spacingRight=4;overflow=hidden;rotatable=0;points=[[0,0.5],[1,0.5]];portConstraint=eastwest;" parent="Glf05ymJiexmFn3EhBXO-15" vertex="1">
          <mxGeometry y="340" width="580" height="30" as="geometry" />
        </mxCell>
        <mxCell id="Glf05ymJiexmFn3EhBXO-42" value="+ setHijoNE(hijoNE: NodoQ): void" style="text;align=left;verticalAlign=top;spacingLeft=4;spacingRight=4;overflow=hidden;rotatable=0;points=[[0,0.5],[1,0.5]];portConstraint=eastwest;" parent="Glf05ymJiexmFn3EhBXO-15" vertex="1">
          <mxGeometry y="370" width="580" height="30" as="geometry" />
        </mxCell>
        <mxCell id="Glf05ymJiexmFn3EhBXO-43" value="+ getHijoNW(): NodoQ&#xa;" style="text;align=left;verticalAlign=top;spacingLeft=4;spacingRight=4;overflow=hidden;rotatable=0;points=[[0,0.5],[1,0.5]];portConstraint=eastwest;" parent="Glf05ymJiexmFn3EhBXO-15" vertex="1">
          <mxGeometry y="400" width="580" height="30" as="geometry" />
        </mxCell>
        <mxCell id="Glf05ymJiexmFn3EhBXO-44" value="+ setHijoNW(hijoNW: NodoQ): void" style="text;align=left;verticalAlign=top;spacingLeft=4;spacingRight=4;overflow=hidden;rotatable=0;points=[[0,0.5],[1,0.5]];portConstraint=eastwest;" parent="Glf05ymJiexmFn3EhBXO-15" vertex="1">
          <mxGeometry y="430" width="580" height="30" as="geometry" />
        </mxCell>
        <mxCell id="Glf05ymJiexmFn3EhBXO-45" value="+ getHijoSW(): NodoQ&#xa;" style="text;align=left;verticalAlign=top;spacingLeft=4;spacingRight=4;overflow=hidden;rotatable=0;points=[[0,0.5],[1,0.5]];portConstraint=eastwest;" parent="Glf05ymJiexmFn3EhBXO-15" vertex="1">
          <mxGeometry y="460" width="580" height="30" as="geometry" />
        </mxCell>
        <mxCell id="Glf05ymJiexmFn3EhBXO-46" value="+ setHijoSW(hijoSW: NodoQ): void" style="text;align=left;verticalAlign=top;spacingLeft=4;spacingRight=4;overflow=hidden;rotatable=0;points=[[0,0.5],[1,0.5]];portConstraint=eastwest;" parent="Glf05ymJiexmFn3EhBXO-15" vertex="1">
          <mxGeometry y="490" width="580" height="30" as="geometry" />
        </mxCell>
        <mxCell id="Glf05ymJiexmFn3EhBXO-47" value="+ getHijoSE(): NodoQ&#xa;" style="text;align=left;verticalAlign=top;spacingLeft=4;spacingRight=4;overflow=hidden;rotatable=0;points=[[0,0.5],[1,0.5]];portConstraint=eastwest;" parent="Glf05ymJiexmFn3EhBXO-15" vertex="1">
          <mxGeometry y="520" width="580" height="30" as="geometry" />
        </mxCell>
        <mxCell id="Glf05ymJiexmFn3EhBXO-48" value="+ setHijoSE(hijoSE: NodoQ): void" style="text;align=left;verticalAlign=top;spacingLeft=4;spacingRight=4;overflow=hidden;rotatable=0;points=[[0,0.5],[1,0.5]];portConstraint=eastwest;" parent="Glf05ymJiexmFn3EhBXO-15" vertex="1">
          <mxGeometry y="550" width="580" height="30" as="geometry" />
        </mxCell>
        <mxCell id="Glf05ymJiexmFn3EhBXO-49" value="+ getLlave(): Mat&#xa;" style="text;align=left;verticalAlign=top;spacingLeft=4;spacingRight=4;overflow=hidden;rotatable=0;points=[[0,0.5],[1,0.5]];portConstraint=eastwest;" parent="Glf05ymJiexmFn3EhBXO-15" vertex="1">
          <mxGeometry y="580" width="580" height="30" as="geometry" />
        </mxCell>
        <mxCell id="Glf05ymJiexmFn3EhBXO-50" value="+ setLlave(llave: Mat): void" style="text;align=left;verticalAlign=top;spacingLeft=4;spacingRight=4;overflow=hidden;rotatable=0;points=[[0,0.5],[1,0.5]];portConstraint=eastwest;" parent="Glf05ymJiexmFn3EhBXO-15" vertex="1">
          <mxGeometry y="610" width="580" height="30" as="geometry" />
        </mxCell>
        <mxCell id="Glf05ymJiexmFn3EhBXO-51" value="+ hasHijos(): boolean" style="text;align=left;verticalAlign=top;spacingLeft=4;spacingRight=4;overflow=hidden;rotatable=0;points=[[0,0.5],[1,0.5]];portConstraint=eastwest;" parent="Glf05ymJiexmFn3EhBXO-15" vertex="1">
          <mxGeometry y="640" width="580" height="30" as="geometry" />
        </mxCell>
        <mxCell id="Glf05ymJiexmFn3EhBXO-53" style="edgeStyle=orthogonalEdgeStyle;rounded=0;orthogonalLoop=1;jettySize=auto;html=1;exitX=0.5;exitY=0;exitDx=0;exitDy=0;entryX=1;entryY=0.5;entryDx=0;entryDy=0;endArrow=diamondThin;endFill=1;" parent="Glf05ymJiexmFn3EhBXO-15" source="Glf05ymJiexmFn3EhBXO-15" target="Glf05ymJiexmFn3EhBXO-41" edge="1">
          <mxGeometry relative="1" as="geometry">
            <mxPoint x="750" y="100" as="targetPoint" />
            <Array as="points">
              <mxPoint x="290" y="-20" />
              <mxPoint x="820" y="-20" />
              <mxPoint x="820" y="355" />
            </Array>
          </mxGeometry>
        </mxCell>
        <mxCell id="Glf05ymJiexmFn3EhBXO-54" style="edgeStyle=orthogonalEdgeStyle;rounded=0;orthogonalLoop=1;jettySize=auto;html=1;endArrow=diamondThin;endFill=1;entryX=1;entryY=0.5;entryDx=0;entryDy=0;" parent="Glf05ymJiexmFn3EhBXO-15" source="Glf05ymJiexmFn3EhBXO-15" target="Glf05ymJiexmFn3EhBXO-43" edge="1">
          <mxGeometry relative="1" as="geometry">
            <mxPoint x="580" y="440" as="targetPoint" />
            <Array as="points">
              <mxPoint x="215" y="-40" />
              <mxPoint x="850" y="-40" />
              <mxPoint x="850" y="415" />
            </Array>
          </mxGeometry>
        </mxCell>
        <mxCell id="Glf05ymJiexmFn3EhBXO-55" style="edgeStyle=orthogonalEdgeStyle;rounded=0;orthogonalLoop=1;jettySize=auto;html=1;exitX=0.25;exitY=0;exitDx=0;exitDy=0;entryX=1;entryY=0.5;entryDx=0;entryDy=0;endArrow=diamondThin;endFill=1;" parent="Glf05ymJiexmFn3EhBXO-15" source="Glf05ymJiexmFn3EhBXO-15" target="Glf05ymJiexmFn3EhBXO-45" edge="1">
          <mxGeometry relative="1" as="geometry">
            <mxPoint x="860" y="430" as="targetPoint" />
            <Array as="points">
              <mxPoint x="145" y="-60" />
              <mxPoint x="880" y="-60" />
              <mxPoint x="880" y="475" />
            </Array>
          </mxGeometry>
        </mxCell>
        <mxCell id="Glf05ymJiexmFn3EhBXO-56" style="edgeStyle=orthogonalEdgeStyle;rounded=0;orthogonalLoop=1;jettySize=auto;html=1;endArrow=diamondThin;endFill=1;entryX=1;entryY=0.5;entryDx=0;entryDy=0;startArrow=none;startFill=0;" parent="Glf05ymJiexmFn3EhBXO-15" source="Glf05ymJiexmFn3EhBXO-15" target="Glf05ymJiexmFn3EhBXO-47" edge="1">
          <mxGeometry relative="1" as="geometry">
            <mxPoint x="570" y="538" as="targetPoint" />
            <mxPoint x="100" y="62.5" as="sourcePoint" />
            <Array as="points">
              <mxPoint x="100" y="-90" />
              <mxPoint x="910" y="-90" />
              <mxPoint x="910" y="538" />
              <mxPoint x="580" y="538" />
            </Array>
          </mxGeometry>
        </mxCell>
        <mxCell id="Glf05ymJiexmFn3EhBXO-61" style="edgeStyle=orthogonalEdgeStyle;rounded=0;orthogonalLoop=1;jettySize=auto;html=1;exitX=0.75;exitY=0;exitDx=0;exitDy=0;endArrow=diamondThin;endFill=1;entryX=1;entryY=0.5;entryDx=0;entryDy=0;" parent="Glf05ymJiexmFn3EhBXO-15" source="Glf05ymJiexmFn3EhBXO-15" target="Glf05ymJiexmFn3EhBXO-39" edge="1">
          <mxGeometry relative="1" as="geometry">
            <mxPoint x="580" y="280" as="targetPoint" />
            <Array as="points">
              <mxPoint x="435" y="-10" />
              <mxPoint x="790" y="-10" />
              <mxPoint x="790" y="295" />
            </Array>
          </mxGeometry>
        </mxCell>
        <mxCell id="S6Ziu7sGaybo_XxZtjFz-0" style="edgeStyle=orthogonalEdgeStyle;rounded=0;orthogonalLoop=1;jettySize=auto;html=1;exitX=0;exitY=0;exitDx=0;exitDy=0;entryX=1;entryY=0.5;entryDx=0;entryDy=0;endArrow=none;endFill=0;" parent="Glf05ymJiexmFn3EhBXO-15" source="Glf05ymJiexmFn3EhBXO-15" target="Glf05ymJiexmFn3EhBXO-49" edge="1">
          <mxGeometry relative="1" as="geometry">
            <mxPoint x="1361" y="600" as="targetPoint" />
            <Array as="points">
              <mxPoint y="-110" />
              <mxPoint x="940" y="-110" />
              <mxPoint x="940" y="601" />
              <mxPoint x="580" y="601" />
            </Array>
          </mxGeometry>
        </mxCell>
        <mxCell id="Glf05ymJiexmFn3EhBXO-52" style="edgeStyle=orthogonalEdgeStyle;rounded=0;orthogonalLoop=1;jettySize=auto;html=1;entryX=0;entryY=0.5;entryDx=0;entryDy=0;endArrow=none;endFill=0;startArrow=diamondThin;startFill=1;" parent="WIyWlLk6GJQsqaUBKTNV-1" target="Glf05ymJiexmFn3EhBXO-32" edge="1">
          <mxGeometry relative="1" as="geometry">
            <Array as="points">
              <mxPoint x="770" y="310" />
            </Array>
            <mxPoint x="660" y="310" as="sourcePoint" />
          </mxGeometry>
        </mxCell>
        <mxCell id="Glf05ymJiexmFn3EhBXO-57" style="edgeStyle=orthogonalEdgeStyle;rounded=0;orthogonalLoop=1;jettySize=auto;html=1;exitX=1;exitY=0.5;exitDx=0;exitDy=0;entryX=0;entryY=0.5;entryDx=0;entryDy=0;endArrow=none;endFill=0;" parent="WIyWlLk6GJQsqaUBKTNV-1" source="Glf05ymJiexmFn3EhBXO-6" target="Glf05ymJiexmFn3EhBXO-38" edge="1">
          <mxGeometry relative="1" as="geometry">
            <Array as="points">
              <mxPoint x="660" y="400" />
              <mxPoint x="770" y="400" />
            </Array>
          </mxGeometry>
        </mxCell>
        <mxCell id="Glf05ymJiexmFn3EhBXO-59" style="edgeStyle=orthogonalEdgeStyle;rounded=0;orthogonalLoop=1;jettySize=auto;html=1;exitX=1;exitY=0.5;exitDx=0;exitDy=0;entryX=0;entryY=0.5;entryDx=0;entryDy=0;dashed=1;endArrow=open;endFill=0;" parent="WIyWlLk6GJQsqaUBKTNV-1" source="Glf05ymJiexmFn3EhBXO-7" target="Glf05ymJiexmFn3EhBXO-39" edge="1">
          <mxGeometry relative="1" as="geometry">
            <Array as="points">
              <mxPoint x="660" y="365" />
            </Array>
          </mxGeometry>
        </mxCell>
      </root>
    </mxGraphModel>
  </diagram>
</mxfile>
